{
    "asset" : {
        "generator" : "Khronos glTF Blender I/O v1.4.40",
        "version" : "2.0"
    },
    "scene" : 0,
    "scenes" : [
        {
            "name" : "Scene",
            "nodes" : [
                0,
                1,
                2,
                3,
                4
            ]
        }
    ],
    "nodes" : [
        {
            "mesh" : 0,
            "name" : "pCone1",
            "rotation" : [
                0.7071068286895752,
                0,
                0,
                0.7071067094802856
            ],
            "scale" : [
                0.009999999776482582,
                0.009999999776482582,
                0.009999999776482582
            ],
            "translation" : [
                0,
                0.011181939393281937,
                0
            ]
        },
        {
            "mesh" : 1,
            "name" : "pCone2",
            "rotation" : [
                0.7071068286895752,
                0,
                0,
                0.7071067094802856
            ],
            "scale" : [
                0.009999999776482582,
                0.009999999776482582,
                0.005882764235138893
            ],
            "translation" : [
                0,
                0.0017046976136043668,
                0.00038836983731016517
            ]
        },
        {
            "mesh" : 2,
            "name" : "pCone3",
            "rotation" : [
                0.5949957370758057,
                0.38207361102104187,
                -0.38207367062568665,
                0.5949956178665161
            ],
            "scale" : [
                0.010000000707805157,
                0.010000000707805157,
                0.005882764235138893
            ],
            "translation" : [
                -0.0006246732082217932,
                0.006934266071766615,
                -0.0005674643907696009
            ]
        },
        {
            "mesh" : 3,
            "name" : "pCone4",
            "rotation" : [
                0.06880846619606018,
                -0.6650083065032959,
                0.7382484078407288,
                0.08954682946205139
            ],
            "scale" : [
                0.009999998845160007,
                0.009999999776482582,
                0.005882764235138893
            ],
            "translation" : [
                -0.0013434314168989658,
                -0.007677299901843071,
                8.633278048364446e-05
            ]
        },
        {
            "mesh" : 4,
            "name" : "pCone5",
            "rotation" : [
                0.15760783851146698,
                -0.6893183588981628,
                0.6893184185028076,
                0.15760783851146698
            ],
            "scale" : [
                0.009022954851388931,
                0.009022954851388931,
                0.005307991523295641
            ],
            "translation" : [
                -0.0002745854144450277,
                0.008363139815628529,
                0.00021553262195084244
            ]
        }
    ],
    "materials" : [
        {
            "doubleSided" : true,
            "name" : "Material",
            "pbrMetallicRoughness" : {
                "baseColorTexture" : {
                    "index" : 0,
                    "texCoord" : 0
                },
                "metallicFactor" : 0,
                "roughnessFactor" : 0
            }
        }
    ],
    "meshes" : [
        {
            "name" : "Mesh",
            "primitives" : [
                {
                    "attributes" : {
                        "POSITION" : 0,
                        "NORMAL" : 1,
                        "TEXCOORD_0" : 2
                    },
                    "indices" : 3,
                    "material" : 0
                }
            ]
        },
        {
            "name" : "Mesh.001",
            "primitives" : [
                {
                    "attributes" : {
                        "POSITION" : 4,
                        "NORMAL" : 5,
                        "TEXCOORD_0" : 6
                    },
                    "indices" : 7,
                    "material" : 0
                }
            ]
        },
        {
            "name" : "Mesh.002",
            "primitives" : [
                {
                    "attributes" : {
                        "POSITION" : 8,
                        "NORMAL" : 9,
                        "TEXCOORD_0" : 10
                    },
                    "indices" : 7,
                    "material" : 0
                }
            ]
        },
        {
            "name" : "Mesh.003",
            "primitives" : [
                {
                    "attributes" : {
                        "POSITION" : 11,
                        "NORMAL" : 12,
                        "TEXCOORD_0" : 13
                    },
                    "indices" : 7,
                    "material" : 0
                }
            ]
        },
        {
            "name" : "Mesh.004",
            "primitives" : [
                {
                    "attributes" : {
                        "POSITION" : 14,
                        "NORMAL" : 15,
                        "TEXCOORD_0" : 16
                    },
                    "indices" : 17,
                    "material" : 0
                }
            ]
        }
    ],
    "textures" : [
        {
            "sampler" : 0,
            "source" : 0
        }
    ],
    "images" : [
        {
            "bufferView" : 4,
            "mimeType" : "image/png",
            "name" : "uv"
        }
    ],
    "accessors" : [
        {
            "bufferView" : 0,
            "componentType" : 5126,
            "count" : 443,
            "max" : [
                0.5279825925827026,
                0.6599781513214111,
                1.100000023841858
            ],
            "min" : [
                -0.5279825329780579,
                -0.6599781513214111,
                -2.0047895908355713
            ],
            "type" : "VEC3"
        },
        {
            "bufferView" : 1,
            "componentType" : 5126,
            "count" : 443,
            "type" : "VEC3"
        },
        {
            "bufferView" : 2,
            "componentType" : 5126,
            "count" : 443,
            "type" : "VEC2"
        },
        {
            "bufferView" : 3,
            "componentType" : 5123,
            "count" : 2448,
            "type" : "SCALAR"
        },
        {
            "bufferView" : 5,
            "componentType" : 5126,
            "count" : 82,
            "max" : [
                0.16350942850112915,
                0.5422125458717346,
                -2.2440547943115234
            ],
            "min" : [
                -0.03965761885046959,
                0.21328994631767273,
                -3.8250858783721924
            ],
            "type" : "VEC3"
        },
        {
            "bufferView" : 6,
            "componentType" : 5126,
            "count" : 82,
            "type" : "VEC3"
        },
        {
            "bufferView" : 7,
            "componentType" : 5126,
            "count" : 82,
            "type" : "VEC2"
        },
        {
            "bufferView" : 8,
            "componentType" : 5123,
            "count" : 432,
            "type" : "SCALAR"
        },
        {
            "bufferView" : 9,
            "componentType" : 5126,
            "count" : 82,
            "max" : [
                0.14966052770614624,
                0.5588477253913879,
                -2.2440547943115234
            ],
            "min" : [
                -0.04131798818707466,
                0.18815289437770844,
                -3.798349618911743
            ],
            "type" : "VEC3"
        },
        {
            "bufferView" : 10,
            "componentType" : 5126,
            "count" : 82,
            "type" : "VEC3"
        },
        {
            "bufferView" : 11,
            "componentType" : 5126,
            "count" : 82,
            "type" : "VEC2"
        },
        {
            "bufferView" : 12,
            "componentType" : 5126,
            "count" : 82,
            "max" : [
                0.16357013583183289,
                0.5682680010795593,
                -2.2440547943115234
            ],
            "min" : [
                -0.03961443901062012,
                0.195020854473114,
                -3.842177152633667
            ],
            "type" : "VEC3"
        },
        {
            "bufferView" : 13,
            "componentType" : 5126,
            "count" : 82,
            "type" : "VEC3"
        },
        {
            "bufferView" : 14,
            "componentType" : 5126,
            "count" : 82,
            "type" : "VEC2"
        },
        {
            "bufferView" : 15,
            "componentType" : 5126,
            "count" : 44,
            "max" : [
                0.16473975777626038,
                0.6314818859100342,
                -2.243565082550049
            ],
            "min" : [
                -0.05682621896266937,
                0.16135691106319427,
                -3.9242234230041504
            ],
            "type" : "VEC3"
        },
        {
            "bufferView" : 16,
            "componentType" : 5126,
            "count" : 44,
            "type" : "VEC3"
        },
        {
            "bufferView" : 17,
            "componentType" : 5126,
            "count" : 44,
            "type" : "VEC2"
        },
        {
            "bufferView" : 18,
            "componentType" : 5123,
            "count" : 108,
            "type" : "SCALAR"
        }
    ],
    "bufferViews" : [
        {
            "buffer" : 0,
            "byteLength" : 5316,
            "byteOffset" : 0
        },
        {
            "buffer" : 0,
            "byteLength" : 5316,
            "byteOffset" : 5316
        },
        {
            "buffer" : 0,
            "byteLength" : 3544,
            "byteOffset" : 10632
        },
        {
            "buffer" : 0,
            "byteLength" : 4896,
            "byteOffset" : 14176
        },
        {
            "buffer" : 0,
            "byteLength" : 57703,
            "byteOffset" : 19072
        },
        {
            "buffer" : 0,
            "byteLength" : 984,
            "byteOffset" : 76776
        },
        {
            "buffer" : 0,
            "byteLength" : 984,
            "byteOffset" : 77760
        },
        {
            "buffer" : 0,
            "byteLength" : 656,
            "byteOffset" : 78744
        },
        {
            "buffer" : 0,
            "byteLength" : 864,
            "byteOffset" : 79400
        },
        {
            "buffer" : 0,
            "byteLength" : 984,
            "byteOffset" : 80264
        },
        {
            "buffer" : 0,
            "byteLength" : 984,
            "byteOffset" : 81248
        },
        {
            "buffer" : 0,
            "byteLength" : 656,
            "byteOffset" : 82232
        },
        {
            "buffer" : 0,
            "byteLength" : 984,
            "byteOffset" : 82888
        },
        {
            "buffer" : 0,
            "byteLength" : 984,
            "byteOffset" : 83872
        },
        {
            "buffer" : 0,
            "byteLength" : 656,
            "byteOffset" : 84856
        },
        {
            "buffer" : 0,
            "byteLength" : 528,
            "byteOffset" : 85512
        },
        {
            "buffer" : 0,
            "byteLength" : 528,
            "byteOffset" : 86040
        },
        {
            "buffer" : 0,
            "byteLength" : 352,
            "byteOffset" : 86568
        },
        {
            "buffer" : 0,
            "byteLength" : 216,
            "byteOffset" : 86920
        }
    ],
    "samplers" : [
        {
            "magFilter" : 9729,
            "minFilter" : 9986
        }
    ],
    "buffers" : [
        {
            "byteLength" : 87136,
            "uri" : "data:application/octet-stream;base64,"
        }
    ]
}
