{
    "asset" : {
        "generator" : "Khronos glTF Blender I/O v1.4.40",
        "version" : "2.0"
    },
    "scene" : 0,
    "scenes" : [
        {
            "name" : "Scene",
            "nodes" : [
                0
            ]
        }
    ],
    "nodes" : [
        {
            "mesh" : 0,
            "name" : "defaultMaterial",
            "rotation" : [
                0.7071068286895752,
                0,
                0,
                0.7071067094802856
            ]
        }
    ],
    "materials" : [
        {
            "doubleSided" : true,
            "name" : "lambert2",
            "pbrMetallicRoughness" : {
                "baseColorFactor" : [
                    1,
                    0.6153833866119385,
                    0,
                    1
                ],
                "metallicFactor" : 0.7244094610214233,
                "roughnessFactor" : 0.17483365535736084
            }
        }
    ],
    "meshes" : [
        {
            "name" : "Mesh",
            "primitives" : [
                {
                    "attributes" : {
                        "POSITION" : 0,
                        "NORMAL" : 1,
                        "TEXCOORD_0" : 2,
                        "COLOR_0" : 3
                    },
                    "indices" : 4,
                    "material" : 0
                }
            ]
        }
    ],
    "accessors" : [
        {
            "bufferView" : 0,
            "componentType" : 5126,
            "count" : 8740,
            "max" : [
                1,
                0.4688139855861664,
                0.07672370225191116
            ],
            "min" : [
                -1,
                -0.4688139855861664,
                -0.07672370225191116
            ],
            "type" : "VEC3"
        },
        {
            "bufferView" : 1,
            "componentType" : 5126,
            "count" : 8740,
            "type" : "VEC3"
        },
        {
            "bufferView" : 2,
            "componentType" : 5126,
            "count" : 8740,
            "type" : "VEC2"
        },
        {
            "bufferView" : 3,
            "componentType" : 5123,
            "count" : 8740,
            "normalized" : true,
            "type" : "VEC4"
        },
        {
            "bufferView" : 4,
            "componentType" : 5123,
            "count" : 49248,
            "type" : "SCALAR"
        }
    ],
    "bufferViews" : [
        {
            "buffer" : 0,
            "byteLength" : 104880,
            "byteOffset" : 0
        },
        {
            "buffer" : 0,
            "byteLength" : 104880,
            "byteOffset" : 104880
        },
        {
            "buffer" : 0,
            "byteLength" : 69920,
            "byteOffset" : 209760
        },
        {
            "buffer" : 0,
            "byteLength" : 69920,
            "byteOffset" : 279680
        },
        {
            "buffer" : 0,
            "byteLength" : 98496,
            "byteOffset" : 349600
        }
    ],
    "buffers" : [
        {
            "byteLength" : 448096,
            "uri" : "data:application/octet-stream;base64,"
        }
    ]
}
