<svg xmlns="http://www.w3.org/2000/svg" version="1.1" xmlns:xlink="http://www.w3.org/1999/xlink" xmlns:svgjs="http://svgjs.dev/svgjs" viewBox="0 0 800 800"><defs><linearGradient x1="50%" y1="0%" x2="50%" y2="100%" id="ccchaos-grad"><stop stop-color="hsl(205, 69%, 60%)" stop-opacity="1" offset="0%"></stop><stop stop-color="hsl(205, 69%, 80%)" stop-opacity="1" offset="100%"></stop></linearGradient></defs><g stroke-width="2" stroke="url(#ccchaos-grad)" fill="none" stroke-linecap="round"><path d="M409.19 126.73C419.28 127.96 429.58 128.77 440.07 129.16 450.58 128.67 461.29 127.92 472.14 127.04 482.98 125.71 493.93 124.62 504.88 123.95 515.74 123.39 526.5 123.61 536.99 124.72 547.21 126.39 556.97 129.13 566.07 132.94 574.62 137.46 582.27 143.02 588.82 149.51 594.58 156.59 599.07 164.42 602.21 172.87 604.57 181.62 605.68 190.77 605.66 200.19 605.36 209.62 604.44 219.16 603.27 228.72 602.82 238.09 602.93 247.41 604.06 256.65 606.99 265.63 611.61 274.53 618.1 283.37 626.78 291.95 637.22 300.53 649.11 309.14 662.12 317.55 675.42 326.06 688.2 334.71 699.89 343.24 709.45 351.96 716.1 360.92 719.75 369.81 719.71 378.99 715.92 388.48 709.29 397.93 699.87 407.73 688.52 417.86 676.93 428 665.82 438.25 656.2 448.59 649.13 458.92 644.73 469.31 643.13 479.72 644.63 490.08 648.37 500.41 653.69 510.59 660.45 520.67 667.26 530.51 673.32 540 678.59 549.25 681.85 558.01 682.75 566.15 681.6 573.89 677.81 580.85 671.56 586.93 663.41 592.47 653.36 597.03 641.88 600.56 629.48 603.58 616.45 605.64 603.22 606.78 590.09 607.71 577.33 608.02 565.13 607.9 553.6 608.15 542.81 608.47 532.75 609.12 523.45 610.85 514.76 613.42 506.55 617.05 498.91 622.25 491.52 628.71 484.23 636.42 477.27 645.55 470.2 655.59 462.94 666.2 455.79 677.25 448.32 688.01 440.46 697.93 432.63 706.81 424.36 713.86 415.65 718.59 406.93 721.16 397.76 720.94 388.16 717.86 378.57 712.64 368.81 705.21 358.94 696.14 349.11 686.35 339.22 676.06 329.34 665.86 319.56 656.54 309.85 648.21 300.3 641.16 290.92 635.9 281.78 632.14 272.96 629.79 264.38 629.12 256.21 629.46 248.52 630.49 241.12 632.41 234.24 634.35 227.95 635.96 219.15 637.91 204.39 635.75 198.11 630.95 193.88 626.44 189.83 620.66 185.86 613.74 181.46 606.07 176.98 597.47 172.36 588.11 167.17 578.27 161.81 567.92 156.31 557.21 150.38 546.27 144.46 535.16 138.7 524 132.88 512.78 127.51 501.61 122.76 490.55 118.41 479.52 114.93 468.63 112.47 457.94 110.62 447.28 109.83 436.81 110.07 426.56 110.77 416.33 112.29 406.29 114.47 396.47 116.6 386.65 118.99 377.26 121.46 368.3 123.4 359.32 125.24 350.76 126.92 342.61 127.98 334.42 128.99 326.63 130.02 319.21 130.73 311.72 131.74 304.56 133.19 297.72 134.78 290.74 137.09 284 140.19 277.46 143.77 270.69 148.28 264.01 153.68 257.38 159.63 250.41 166.41 243.38 173.9 236.25 181.77 228.69 190.17 220.98 198.95 213.11 207.82 204.84 216.89 196.43 226.06 187.96 235.07 179.27 244.07 170.66 253.01 162.28 261.67 153.99 270.26 146.18 278.8 139.02 287.04 132.35 295.27 126.58 303.55 121.85 311.59 117.88 319.75 115.07 328.08 113.46 336.25 112.58 344.66 112.77 353.34 113.96 361.94 115.45 370.87 117.58 380.17 120.14 389.42 122.39 399.09 124.64 409.18 126.73" stroke-dasharray="9 6" transform="rotate(0, 400, 400)" opacity="0.90"></path><path d="M415.57 138.09C425.42 139.33 435.4 140.17 445.48 140.62 455.58 140.22 465.76 139.56 475.98 138.76 486.16 137.49 496.31 136.4 506.33 135.66 516.21 134.97 525.83 134.96 535.05 135.74 543.95 136.99 552.26 139.22 559.83 142.46 566.88 146.34 572.98 151.23 578.02 157.04 582.41 163.43 585.67 170.62 587.77 178.47 589.36 186.68 590 195.36 589.85 204.39 589.74 213.53 589.37 222.86 589.08 232.29 589.73 241.63 591.15 250.98 593.71 260.29 598.03 269.41 603.94 278.48 611.53 287.49 620.97 296.3 631.83 305.08 643.75 313.86 656.39 322.46 668.99 331.13 680.81 339.87 691.39 348.49 699.81 357.26 705.43 366.19 708.27 375.07 707.71 384.15 703.74 393.46 697.25 402.75 688.24 412.3 677.48 422.11 666.5 431.92 655.9 441.76 646.58 451.6 639.51 461.43 634.79 471.24 632.59 480.96 633.25 490.63 636.02 500.17 640.39 509.48 646.3 518.65 652.51 527.51 658.31 535.94 663.7 544.12 667.5 551.76 669.34 558.75 669.49 565.37 667.27 571.22 662.77 576.22 656.47 580.8 648.22 584.49 638.4 587.28 627.49 589.73 615.66 591.4 603.33 592.36 590.79 593.31 578.28 593.85 566.05 594.18 554.21 595.02 542.91 596.08 532.19 597.6 522.07 600.22 512.52 603.69 503.46 608.18 494.93 614.08 486.74 621.11 478.78 629.2 471.16 638.46 463.58 648.41 455.97 658.74 448.52 669.31 440.9 679.46 433.04 688.69 425.23 696.89 417.12 703.31 408.7 707.55 400.27 709.8 391.5 709.46 382.41 706.49 373.31 701.56 364.13 694.58 354.91 686.05 345.72 676.79 336.53 666.98 327.43 657.14 318.41 648.01 309.52 639.66 300.85 632.39 292.33 626.69 284.09 622.32 276.21 619.24 268.52 617.75 261.26 617.26 254.47 617.52 244.86 619.45 228.39 623.36 221.43 623.81 214.83 622.64 202.54 613.56 196.36 605.65 191.78 599.33 187.07 592.05 182.2 583.98 176.79 575.4 171.23 566.22 165.56 556.58 159.53 546.67 153.57 536.46 147.82 526.09 142.09 515.61 136.85 505.07 132.27 494.56 128.12 484.03 124.86 473.59 122.6 463.28 120.96 452.99 120.36 442.86 120.76 432.91 121.61 422.98 123.23 413.22 125.51 403.68 127.74 394.13 130.2 385 132.73 376.29 134.76 367.55 136.66 359.2 138.39 351.23 139.51 343.22 140.52 335.55 141.52 328.21 142.15 320.78 143.01 313.63 144.23 306.73 145.52 299.67 147.44 292.79 150.08 286.04 153.14 279.04 157.06 272.09 161.84 265.14 167.17 257.85 173.32 250.49 180.22 243.03 187.55 235.19 195.47 227.21 203.85 219.12 212.43 210.72 221.29 202.25 230.34 193.8 239.34 185.23 248.4 176.83 257.47 168.74 266.34 160.85 275.17 153.49 283.95 146.83 292.5 140.69 301.02 135.46 309.55 131.27 317.87 127.8 326.26 125.44 334.74 124.21 343.09 123.63 351.6 124.05 360.32 125.37 368.96 126.95 377.86 129.09 387.06 131.63 396.22 133.84 405.72 136.04 415.56 138.09" stroke-dasharray="9 9" transform="rotate(4.04, 400, 400)" opacity="0.47"></path><path d="M420.13 149.46C429.68 150.7 439.27 151.57 448.86 152.07 458.44 151.76 468 151.2 477.46 150.49 486.87 149.29 496.12 148.23 505.11 147.46 513.93 146.66 522.37 146.45 530.3 146.95 537.91 147.82 544.86 149.59 551.03 152.28 556.75 155.56 561.56 159.78 565.39 164.91 568.74 170.6 571.14 177.1 572.62 184.28 573.85 191.87 574.41 199.99 574.51 208.53 574.92 217.25 575.36 226.23 576.14 235.39 577.99 244.55 580.74 253.79 584.66 263.04 590.23 272.17 597.23 281.29 605.68 290.37 615.64 299.3 626.68 308.2 638.41 317.08 650.53 325.83 662.32 334.59 673.12 343.38 682.59 352.09 689.92 360.87 694.58 369.75 696.67 378.58 695.65 387.56 691.55 396.68 685.22 405.78 676.63 415.06 666.44 424.51 656.06 433.96 645.97 443.35 636.96 452.66 629.93 461.96 624.97 471.14 622.24 480.15 622.12 489.1 623.99 497.83 627.42 506.25 632.45 514.53 637.96 522.43 643.36 529.84 648.66 537.03 652.78 543.65 655.31 549.6 656.07 557.71 644.89 569.66 633.55 573.5 624.27 575.63 613.87 577.15 602.72 578.16 591.12 579.32 579.26 580.26 567.4 581.16 555.68 582.68 544.25 584.54 533.24 586.93 522.63 590.4 512.5 594.69 502.82 599.92 493.58 606.42 484.71 613.88 476.14 622.22 467.89 631.5 459.8 641.27 451.8 651.24 443.98 661.28 436.12 670.8 428.17 679.35 420.29 686.87 412.25 692.7 404.02 696.47 395.79 698.41 387.36 697.98 378.71 695.12 370.06 690.48 361.41 683.94 352.81 675.92 344.24 667.2 335.75 657.87 327.4 648.42 319.13 639.52 311.04 631.22 303.22 623.81 295.52 617.76 288.12 612.87 281.11 609.14 274.24 606.88 267.79 605.6 261.78 605.08 253.2 605.98 238.32 608.84 231.84 609.43 225.48 608.91 213.06 602.32 206.58 596.06 201.76 590.96 196.8 584.93 191.67 578.09 186.05 570.77 180.3 562.78 174.5 554.27 168.41 545.44 162.46 536.24 156.77 526.77 151.17 517.15 146.11 507.37 141.73 497.54 137.82 487.65 134.8 477.77 132.76 467.96 131.35 458.14 130.93 448.42 131.48 438.84 132.46 429.27 134.19 419.84 136.55 410.58 138.85 401.33 141.38 392.44 143.97 383.93 146.08 375.4 148.05 367.22 149.85 359.36 151.03 351.46 152.08 343.85 153.07 336.51 153.66 329.08 154.42 321.86 155.46 314.83 156.49 307.64 158.06 300.56 160.27 293.56 162.83 286.32 166.19 279.09 170.35 271.82 175.02 264.26 180.51 256.62 186.75 248.88 193.45 240.84 200.79 232.7 208.65 224.49 216.79 216.06 225.29 207.64 234.06 199.32 242.89 190.98 251.86 182.89 260.9 175.19 269.83 167.75 278.78 160.9 287.7 154.78 296.45 149.21 305.19 144.54 313.91 140.87 322.46 137.89 331.05 135.96 339.68 135.09 348.2 134.79 356.82 135.41 365.57 136.85 374.26 138.49 383.13 140.64 392.21 143.13 401.27 145.3 410.57 147.45 420.12 149.46" stroke-dasharray="5 8" transform="rotate(8.08, 400, 400)" opacity="0.96"></path><path d="M422.34 160.83C431.54 162.06 440.66 162.96 449.68 163.51 458.68 163.3 467.54 162.84 476.2 162.23 484.78 161.12 493.09 160.11 501.03 159.33 508.8 158.46 516.1 158.1 522.83 158.36 532.15 159.58 546.58 166.93 551.47 173.17 554.15 178.16 556.07 183.94 557.32 190.42 558.56 197.32 559.41 204.8 560.07 212.74 561.24 220.94 562.67 229.46 564.62 238.22 567.69 247.06 571.71 256.04 576.86 265.09 583.49 274.1 591.36 283.13 600.43 292.15 610.67 301.08 621.66 309.99 633.03 318.88 644.48 327.67 655.37 336.45 665.12 345.23 673.5 353.95 679.78 362.69 683.53 371.48 684.95 380.23 683.53 389.05 679.34 397.95 673.2 406.83 665.02 415.81 655.4 424.87 645.6 433.93 636.02 442.85 627.35 451.61 620.4 460.35 615.25 468.89 612.07 477.18 611.25 485.41 612.26 493.35 614.79 500.91 618.91 508.35 623.67 515.36 628.55 521.86 635.69 531.02 642.88 545.93 641.41 551.52 638.4 554.83 633.6 557.49 627.19 559.55 619.59 561.58 610.76 563.16 600.99 564.42 590.61 565.95 579.72 567.42 568.59 568.99 557.37 571.24 546.22 573.89 535.28 577.12 524.56 581.36 514.18 586.39 504.16 592.25 494.47 599.22 485.13 606.98 476.1 615.43 467.35 624.63 458.82 634.14 450.47 643.67 442.3 653.15 434.19 662.03 426.12 669.9 418.13 676.77 410.1 682.02 402.01 685.36 393.93 687.02 385.76 686.5 377.5 683.75 369.23 679.39 361.07 673.27 353.05 665.76 345.04 657.56 337.19 648.73 329.55 639.69 321.95 631.06 314.6 622.88 307.55 615.4 300.58 609.09 293.93 603.77 287.67 599.48 278.6 595.51 262.53 593.03 255.49 593.44 248.71 594.51 236.13 594.77 229.96 593.1 225.51 591.35 221.01 588.68 216.4 585.13 211.32 581.08 206.09 576.17 200.71 570.46 194.91 564.32 189.02 557.49 183.13 550.08 177.05 542.37 171.15 534.21 165.58 525.7 160.16 517.01 155.31 508.09 151.18 499.02 147.53 489.87 144.76 480.65 142.97 471.41 141.77 462.16 141.54 452.93 142.24 443.78 143.35 434.62 145.17 425.56 147.59 416.61 149.96 407.66 152.54 399.02 155.18 390.7 157.36 382.36 159.41 374.31 161.27 366.53 162.53 358.7 163.65 351.11 164.67 343.73 165.25 336.25 165.95 328.93 166.85 321.73 167.67 314.39 168.96 307.1 170.79 299.86 172.88 292.4 175.7 284.92 179.26 277.4 183.28 269.62 188.08 261.77 193.63 253.85 199.63 245.7 206.3 237.5 213.54 229.3 221.11 220.96 229.11 212.71 237.46 204.63 245.95 196.61 254.65 188.92 263.49 181.68 272.33 174.76 281.22 168.47 290.14 162.92 298.96 157.92 307.78 153.81 316.59 150.67 325.28 148.17 333.98 146.64 342.69 146.1 351.32 146.06 359.99 146.86 368.74 148.39 377.43 150.08 386.24 152.21 395.16 154.65 404.07 156.77 413.13 158.87 422.33 160.83" stroke-dasharray="7 5" transform="rotate(12.12, 400, 400)" opacity="0.95"></path><path d="M421.93 172.2C430.72 173.43 439.33 174.35 447.74 174.95 456.13 174.83 464.27 174.48 472.11 173.97 479.87 172.96 487.27 172.02 494.23 171.25 504.18 170.12 520.88 170.7 527.39 172.92 532.84 176.58 540.19 188.68 542.49 196.97 544.05 203.15 545.46 209.92 546.91 217.2 549 224.77 551.5 232.72 554.64 240.97 558.87 249.36 564.03 257.94 570.24 266.65 577.71 275.39 586.21 284.2 595.64 293.03 605.92 301.82 616.66 310.62 627.49 319.39 638.16 328.11 648.1 336.82 656.79 345.5 664.1 354.13 669.39 362.77 672.31 371.4 673.12 380 671.37 388.62 667.13 397.25 661.19 405.88 653.42 414.52 644.36 423.16 635.14 431.81 626.06 440.24 617.74 448.44 610.91 456.61 605.62 464.53 602.06 472.13 600.62 479.68 600.85 486.87 602.52 493.66 605.75 500.34 609.71 506.56 613.96 512.27 624.8 526.84 625.72 542.51 619.25 545.79 613.31 547.91 606.08 549.74 597.82 551.39 588.84 553.41 579.17 555.49 569.06 557.78 558.68 560.75 548.15 564.18 537.64 568.18 527.18 573.11 516.89 578.75 506.86 585.12 497.02 592.41 487.47 600.35 478.21 608.8 469.15 617.81 460.34 626.98 451.75 636.02 443.31 644.91 435.02 653.13 426.86 660.34 418.77 666.58 410.74 671.29 402.76 674.21 394.8 675.61 386.85 675.02 378.92 672.39 370.99 668.29 363.25 662.57 355.73 655.56 348.21 647.88 340.92 639.55 333.89 630.95 326.88 622.63 320.16 614.61 313.75 607.14 307.39 600.65 301.36 595 295.68 590.24 287.4 585.31 272.55 580.69 265.88 580.15 259.29 580.54 246.54 580.47 240.08 579.19 235.39 577.91 230.61 575.88 225.71 573.06 220.37 569.89 214.9 565.91 209.31 561.2 203.36 556.12 197.39 550.36 191.48 544 185.45 537.36 179.67 530.22 174.26 522.68 169.07 514.96 164.48 506.93 160.62 498.67 157.26 490.31 154.77 481.8 153.22 473.21 152.25 464.57 152.2 455.9 153.04 447.22 154.26 438.53 156.16 429.87 158.62 421.25 161.05 412.63 163.67 404.25 166.36 396.12 168.6 387.97 170.72 380.05 172.66 372.33 174.02 364.56 175.21 356.97 176.28 349.53 176.9 342 177.57 334.57 178.39 327.23 179.06 319.75 180.1 312.29 181.61 304.84 183.3 297.21 185.62 289.55 188.61 281.85 192 273.95 196.12 266 200.95 258.02 206.23 249.88 212.17 241.74 218.71 233.65 225.6 225.53 232.98 217.55 240.76 209.82 248.75 202.23 257.03 195.02 265.51 188.3 274.06 181.95 282.74 176.24 291.47 171.29 300.2 166.88 308.95 163.32 317.69 160.68 326.38 158.63 335.08 157.49 343.76 157.24 352.39 157.44 361.03 158.38 369.68 159.99 378.31 161.7 386.97 163.81 395.68 166.19 404.37 168.25 413.13 170.28 421.92 172.2" stroke-dasharray="7 4" transform="rotate(16.16, 400, 400)" opacity="0.89"></path><path d="M418.95 183.57C427.29 184.79 435.36 185.73 443.15 186.38 450.91 186.35 458.35 186.11 465.42 185.7 472.42 184.81 479 183.96 485.1 183.23 493.81 182.06 508.21 182.07 513.81 183.73 518.64 186.63 525.8 196.82 528.62 204.02 530.75 209.46 532.91 215.5 535.29 222.06 538.36 228.93 541.95 236.23 546.21 243.86 551.49 251.69 557.62 259.76 564.66 268 572.73 276.33 581.61 284.78 591.16 293.28 601.27 301.8 611.58 310.34 621.74 318.88 631.54 327.41 640.48 335.92 648.12 344.4 654.39 352.86 658.75 361.29 660.92 369.68 661.19 378.07 659.16 386.42 654.92 394.74 649.19 403.05 641.84 411.32 633.32 419.53 624.66 427.73 616.08 435.67 608.12 443.32 601.44 450.95 596.08 458.27 592.21 465.23 590.23 472.15 589.75 478.68 590.61 484.79 592.97 490.82 596.11 496.38 599.68 501.46 610.08 514.52 614.15 529.1 609.76 532.54 605.36 534.91 599.71 537.12 592.97 539.28 585.48 541.86 577.18 544.59 568.29 547.59 559.01 551.27 549.39 555.4 539.62 560.08 529.75 565.59 519.9 571.71 510.16 578.45 500.5 585.94 491.03 593.93 481.78 602.28 472.67 611.01 463.78 619.76 455.11 628.27 446.57 636.55 438.2 644.11 430.01 650.67 421.89 656.3 413.9 660.49 406.04 663.03 398.2 664.19 390.46 663.53 382.81 661.02 375.16 657.19 367.78 651.86 360.68 645.33 353.58 638.15 346.75 630.33 340.22 622.17 333.69 614.2 327.46 606.41 321.56 599.02 315.66 592.43 310.08 586.53 304.83 581.39 297.07 575.63 282.92 568.99 276.37 567.48 269.74 567.06 256.51 566.23 249.65 565.06 244.69 564.04 239.62 562.41 234.44 560.14 228.87 557.61 223.19 554.4 217.43 550.5 211.41 546.32 205.42 541.5 199.55 536.09 193.64 530.43 188.04 524.26 182.86 517.64 177.94 510.85 173.65 503.7 170.09 496.26 167.03 488.72 164.82 480.96 163.52 473.03 162.78 465.06 162.9 456.96 163.87 448.79 165.2 440.62 167.16 432.38 169.66 424.12 172.12 415.86 174.78 407.76 177.5 399.84 179.8 391.9 181.99 384.11 184.01 376.46 185.46 368.78 186.75 361.2 187.9 353.73 188.58 346.17 189.27 338.67 190.04 331.22 190.62 323.65 191.49 316.08 192.73 308.51 194.07 300.79 195.96 293.04 198.44 285.27 201.23 277.36 204.71 269.42 208.84 261.5 213.38 253.49 218.56 245.54 224.34 237.7 230.49 229.9 237.16 222.31 244.26 215.01 251.62 207.92 259.32 201.26 267.27 195.13 275.37 189.38 283.65 184.28 292.04 179.93 300.48 176.09 308.99 173.07 317.51 170.92 326.04 169.29 334.57 168.5 343.08 168.52 351.58 168.92 360.07 169.99 368.53 171.65 376.97 173.37 385.41 175.44 393.82 177.75 402.22 179.73 410.61 181.71 418.94 183.56" stroke-dasharray="5 6" transform="rotate(20.200000000000003, 400, 400)" opacity="0.21"></path><path d="M413.76 194.93C421.6 196.14 429.13 197.1 436.32 197.8 443.48 197.86 450.28 197.72 456.67 197.43 465.95 196.28 482.07 194.09 488.82 193.59 499.83 195.37 512.53 205.49 516.2 211.64 519.05 216.34 522.07 221.63 525.41 227.45 529.46 233.58 534.06 240.16 539.3 247.11 545.44 254.27 552.33 261.73 559.96 269.4 568.39 277.2 577.41 285.16 586.84 293.21 596.59 301.32 606.31 309.49 615.68 317.67 624.56 325.87 632.48 334.07 639.08 342.24 644.38 350.42 647.88 358.56 649.37 366.64 649.17 374.72 646.92 382.74 642.7 390.69 637.2 398.64 630.27 406.51 622.28 414.26 614.17 422.02 606.09 429.47 598.5 436.6 592.01 443.71 586.62 450.48 582.52 456.88 579.51 466.22 581.76 482.78 585.76 489.92 595.28 502 601.44 516.28 598.81 520.12 595.79 522.85 591.58 525.53 586.31 528.25 580.31 531.41 573.45 534.79 565.89 538.47 557.87 542.79 549.38 547.54 540.59 552.78 531.58 558.74 522.45 565.22 513.29 572.19 504.11 579.75 495 587.67 486.03 595.8 477.12 604.17 468.38 612.45 459.83 620.4 451.36 628.04 443.07 634.95 434.97 640.88 426.92 645.93 419.04 649.63 411.33 651.82 403.64 652.76 396.1 652.05 388.71 649.65 381.32 646.08 374.24 641.13 367.48 635.06 360.71 628.39 354.24 621.06 348.09 613.37 341.91 605.77 336.05 598.24 330.5 591 324.91 584.4 319.62 578.35 314.62 572.92 307.16 566.47 293.22 557.99 286.59 555.52 279.74 554.23 265.81 552.29 258.52 550.97 253.29 550.02 247.95 548.6 242.52 546.66 236.77 544.59 230.94 541.92 225.1 538.67 219.08 535.21 213.14 531.15 207.38 526.55 201.66 521.74 196.3 516.43 191.4 510.66 186.8 504.74 182.83 498.42 179.59 491.76 176.85 485.02 174.94 477.99 173.89 470.73 173.36 463.42 173.66 455.93 174.75 448.29 176.16 440.64 178.18 432.87 180.7 424.99 183.19 417.11 185.86 409.32 188.6 401.62 190.95 393.92 193.2 386.3 195.3 378.76 196.86 371.19 198.25 363.67 199.49 356.21 200.27 348.69 201.01 341.18 201.79 333.69 202.32 326.11 203.07 318.52 204.11 310.92 205.18 303.22 206.71 295.5 208.74 287.78 211 279.98 213.87 272.19 217.34 264.45 221.16 256.7 225.6 249.05 230.61 241.58 235.97 234.21 241.86 227.09 248.21 220.33 254.83 213.8 261.84 207.74 269.14 202.23 276.64 197.1 284.36 192.62 292.24 188.87 300.23 185.59 308.32 183.09 316.46 181.39 324.65 180.15 332.86 179.67 341.06 179.93 349.28 180.5 357.47 181.67 365.62 183.36 373.77 185.07 381.88 187.09 389.91 189.32 397.95 191.23 405.9 193.13 413.75 194.93" stroke-dasharray="7 9" transform="rotate(24.24, 400, 400)" opacity="0.22"></path><path d="M406.95 206.3C414.29 207.49 421.28 208.46 427.92 209.2 437.65 209.34 455.07 208.18 462.68 207.28 475.82 205.83 491.77 207.93 496.18 210.78 500.85 214.72 511.13 226.15 517.35 233.49 522.28 238.87 527.74 244.69 533.79 250.91 540.58 257.36 547.99 264.12 555.95 271.14 564.5 278.31 573.42 285.67 582.53 293.17 591.75 300.75 600.75 308.42 609.25 316.14 617.17 323.9 624.08 331.69 629.69 339.45 634.07 347.23 636.78 354.98 637.66 362.67 637.06 370.37 634.64 378 630.48 385.54 625.23 393.08 618.71 400.51 611.24 407.81 603.66 415.11 596.08 422.09 588.87 428.73 582.59 435.36 577.23 441.64 572.96 447.56 569.29 456.2 569.41 471.51 572.27 478.15 580.53 489.74 587.78 504.39 586.55 508.76 583.22 513.52 570.51 524.14 561.58 530.41 554.89 535.28 547.65 540.53 539.98 546.21 532.04 552.5 523.84 559.19 515.49 566.25 507.04 573.77 498.55 581.51 490.09 589.33 481.63 597.27 473.26 605.03 465.03 612.39 456.83 619.39 448.78 625.66 440.9 630.98 433.06 635.47 425.38 638.71 417.88 640.57 410.39 641.31 403.07 640.56 395.93 638.28 388.79 634.95 381.97 630.37 375.48 624.76 368.97 618.57 362.77 611.75 356.88 604.52 350.96 597.32 345.33 590.11 339.98 583.06 334.58 576.53 329.44 570.41 324.54 564.79 317.16 557.8 303.06 547.7 296.18 544.32 289.02 542.13 274.29 538.85 266.58 537.19 261.11 536.14 255.56 534.75 249.94 532.96 244.08 531.13 238.19 528.83 232.35 526.02 226.39 523.09 220.59 519.63 215.02 515.67 209.56 511.57 204.49 506.98 199.91 501.94 195.67 496.78 192.05 491.21 189.16 485.28 186.75 479.27 185.13 472.93 184.33 466.32 184.02 459.67 184.47 452.77 185.67 445.67 187.16 438.55 189.21 431.24 191.74 423.77 194.24 416.3 196.92 408.84 199.66 401.42 202.05 393.99 204.36 386.58 206.53 379.2 208.2 371.8 209.7 364.41 211.05 357.04 211.94 349.62 212.77 342.19 213.59 334.76 214.13 327.27 214.83 319.77 215.74 312.26 216.61 304.69 217.84 297.12 219.5 289.58 221.32 282.01 223.65 274.49 226.52 267.07 229.68 259.69 233.4 252.47 237.66 245.46 242.23 238.61 247.32 232.05 252.87 225.88 258.7 219.97 264.93 214.54 271.49 209.67 278.26 205.17 285.3 201.31 292.55 198.13 299.92 195.4 307.45 193.37 315.06 192.09 322.75 191.21 330.49 191.01 338.24 191.47 346.03 192.18 353.8 193.42 361.52 195.12 369.27 196.8 376.95 198.76 384.53 200.9 392.13 202.74 399.61 204.56 406.94 206.3" stroke-dasharray="4 8" transform="rotate(28.28, 400, 400)" opacity="0.47"></path><path d="M399.34 217.67C406.16 218.84 412.65 219.82 418.8 220.59 427.81 220.86 443.98 220.07 451.11 219.33 463.81 217.9 480.39 219.14 485.53 221.36 491.1 224.51 503.64 234.01 511.07 240.28 516.73 244.91 522.86 249.98 529.49 255.44 536.7 261.13 544.37 267.16 552.43 273.47 560.86 279.94 569.47 286.63 578.09 293.49 586.64 300.45 594.83 307.54 602.41 314.7 609.35 321.93 615.26 329.19 619.93 336.46 623.46 343.76 625.46 351.04 625.82 358.27 624.88 365.52 622.34 372.71 618.27 379.79 613.28 386.88 607.16 393.87 600.2 400.71 593.14 407.55 586.04 414.08 579.23 420.28 573.19 426.48 567.91 432.34 563.52 437.85 559.32 445.93 557.52 460.35 559.27 466.7 565.98 478.19 573.42 493.68 573.21 498.68 571.32 504.14 562.19 516.34 555.21 523.39 549.84 528.68 543.87 534.32 537.4 540.3 530.63 546.76 523.5 553.54 516.12 560.57 508.58 567.92 500.9 575.38 493.15 582.81 485.35 590.27 477.55 597.46 469.81 604.21 462.07 610.58 454.42 616.22 446.89 620.95 439.38 624.92 432.01 627.74 424.79 629.29 417.58 629.86 410.52 629.07 403.63 626.91 396.73 623.83 390.15 619.6 383.88 614.42 377.59 608.71 371.59 602.38 365.87 595.63 360.11 588.85 354.61 581.98 349.35 575.19 344.03 568.79 338.92 562.69 334.01 556.97 328.98 551.89 324.11 547.27 319.36 543.13 312.03 538.14 297.31 530.86 289.78 528.17 281.82 526.12 265.27 521.93 256.71 519.39 250.82 517.63 244.97 515.49 239.21 512.96 233.42 510.36 227.83 507.33 222.53 503.85 217.39 500.28 212.66 496.27 208.45 491.83 202.97 484.84 196.07 468.87 194.85 460 194.74 453.96 195.34 447.63 196.63 441.05 198.18 434.45 200.26 427.63 202.78 420.58 205.27 413.53 207.94 406.44 210.68 399.33 213.11 392.22 215.46 385.08 217.69 377.92 219.46 370.76 221.08 363.57 222.54 356.37 223.56 349.14 224.5 341.89 225.4 334.63 226 327.34 226.69 320.04 227.54 312.74 228.28 305.43 229.31 298.14 230.68 290.9 232.13 283.69 234.02 276.56 236.37 269.57 238.93 262.67 242 255.97 245.55 249.52 249.38 243.25 253.69 237.31 258.44 231.77 263.46 226.52 268.87 221.74 274.64 217.51 280.62 213.64 286.9 210.37 293.4 207.75 300.06 205.51 306.9 203.94 313.87 203.03 320.93 202.46 328.08 202.5 335.26 203.14 342.49 203.95 349.74 205.24 356.94 206.92 364.18 208.57 371.35 210.45 378.43 212.5 385.52 214.25 392.5 215.99 399.33 217.67" stroke-dasharray="7 3" transform="rotate(32.32, 400, 400)" opacity="0.46"></path><path d="M391.79 229.04C401.14 230.67 418.3 232.37 426.1 232.5 433.58 231.94 447.11 230.51 453.25 229.99 459.31 229.61 471.03 230.7 476.99 232.4 483.47 234.87 498.04 242.63 506.44 247.89 512.63 251.79 519.21 256.13 526.17 260.86 533.56 265.79 541.25 271.07 549.16 276.64 557.28 282.37 565.4 288.35 573.37 294.52 581.15 300.8 588.46 307.23 595.09 313.77 601.06 320.38 606.03 327.06 609.82 333.76 612.56 340.51 613.93 347.26 613.83 353.98 612.62 360.72 610.01 367.41 606.06 374.02 601.34 380.63 595.63 387.15 589.16 393.54 582.61 399.94 575.99 406.04 569.58 411.85 563.81 417.65 558.64 423.16 554.21 428.35 549.58 436 546.08 449.82 546.77 456.05 549 462.11 554.53 473.37 556.88 478.75 558.6 484.37 558.22 496.11 555.85 502.52 553.57 507.21 550.53 512.14 546.79 517.33 542.65 522.92 537.89 528.8 532.6 534.94 527.01 541.45 521.01 548.18 514.67 555.05 508.15 562.13 501.4 569.23 494.49 576.21 487.5 583.14 480.42 589.74 473.32 595.87 466.19 601.61 459.07 606.64 452.02 610.81 444.97 614.29 437.99 616.71 431.13 617.99 424.27 618.39 417.52 617.58 410.9 615.55 404.27 612.69 397.92 608.8 391.84 604.04 385.74 598.8 379.89 592.95 374.28 586.69 368.63 580.35 363.19 573.86 357.95 567.37 352.64 561.16 347.49 555.15 342.49 549.43 337.37 544.21 332.36 539.36 327.43 534.91 322.35 531.03 317.31 527.52 312.28 524.34 304.45 520.47 288.35 514.25 280.05 511.51 274.33 509.91 268.59 508.17 262.88 506.24 257.07 504.4 251.35 502.29 245.77 499.87 237.58 496.05 223.03 486.51 217.05 480.74 212.17 474.51 206.3 460.16 205.45 452.11 205.53 446.61 206.26 440.81 207.63 434.73 209.23 428.64 211.32 422.28 213.82 415.67 216.29 409.07 218.94 402.37 221.66 395.62 224.1 388.87 226.49 382.05 228.78 375.19 230.64 368.33 232.37 361.43 233.95 354.49 235.11 347.55 236.18 340.58 237.19 333.6 237.88 326.62 238.63 319.63 239.47 312.68 240.15 305.74 241.06 298.84 242.23 292.03 243.4 285.28 244.94 278.65 246.87 272.19 248.93 265.85 251.42 259.74 254.36 253.91 257.5 248.28 261.08 243 265.09 238.13 269.31 233.53 273.93 229.4 278.89 225.81 284.05 222.54 289.52 219.83 295.25 217.73 301.13 215.96 307.21 214.78 313.46 214.21 319.8 213.91 326.27 214.16 332.79 214.92 339.39 215.82 346.02 217.12 352.63 218.78 359.29 220.37 365.9 222.17 372.44 224.11 379 225.77 385.46 227.43 391.78 229.04" stroke-dasharray="10 8" transform="rotate(36.36, 400, 400)" opacity="0.35"></path><path d="M385.21 240.41C393.89 242.01 410.02 243.85 417.48 244.14 427.29 243.34 436.28 242.59 444.62 242.27 453.34 241.51 461.92 241.96 470.71 243.85 480.59 246.25 491.35 250.45 503.22 256.34 516.54 263.03 530.95 271.3 545.93 280.83 561.11 290.96 575.33 302.05 587.26 313.71 596.6 325.68 601.69 337.98 601.73 350.3 600.31 356.5 597.66 362.67 593.86 368.78 589.41 374.91 584.1 380.96 578.12 386.92 572.07 392.87 565.92 398.58 559.91 404.04 554.43 409.5 549.41 414.7 544.99 419.65 538.89 429.56 535.64 438.53 534.82 446.66 536.86 455.03 539.59 462.89 541.91 470.46 544.38 478.78 544.81 487.35 542.82 496.43 539.54 506.79 533.64 518.01 525.53 530.02 516.31 543.1 505.48 556.48 493.6 569.47 481.28 581.99 468.43 592.7 455.48 600.56 448.98 603.57 442.49 605.63 436.05 606.65 429.6 606.91 423.21 606.09 416.89 604.18 410.57 601.54 404.46 597.98 398.57 593.63 392.66 588.83 386.94 583.47 381.41 577.68 370.24 565.9 359.65 553.75 349.52 542.11 339 532.06 328.66 523.2 318.39 515.57 307.51 509.78 296.52 504.73 285.5 500.01 274.02 496.28 262.76 492.11 252.11 487.16 241.82 482.41 232.84 476.44 225.75 469.18 220.03 461.81 216.75 453.09 216.15 443.1 216.82 435.42 221.35 418.57 224.86 409.46 227.3 403.3 229.91 397.03 232.6 390.67 235.04 384.32 237.45 377.88 239.78 371.39 243.26 358.42 246.28 345.24 248.91 332.03 250.26 318.92 251.85 305.89 254.05 293.24 256.05 280.93 259.34 269.31 264.05 258.79 269.31 249.07 276.18 240.88 284.44 234.59 293.35 229.47 303.43 226.44 314.31 225.62 325.6 225.65 337.39 227.43 349.34 230.67 355.37 232.19 361.4 233.9 367.39 235.73 373.39 237.3 379.34 238.87 385.2 240.4" stroke-dasharray="3 1" transform="rotate(40.400000000000006, 400, 400)" opacity="0.76"></path><path d="M380.36 251.77C391.22 253.54 401.41 254.86 410.93 255.74 420.52 255.23 429.63 254.74 438.41 254.57 447.61 253.88 456.94 254.17 466.65 255.66 477.29 257.45 488.76 260.79 501.12 265.63 514.46 271.1 528.46 278.04 542.51 286.2 556.31 294.88 568.82 304.54 578.9 314.87 586.52 325.48 590.26 336.53 589.52 347.72 585.64 359.01 577.86 370.3 567.09 381.38 556.05 392.45 545.22 402.75 535.87 412.23 529.44 421.77 525.36 430.61 523.43 438.86 524.14 447.39 525.72 455.63 527.27 463.78 529.38 472.63 530.06 481.81 528.87 491.48 526.84 502.17 522.59 513.54 516.3 525.43 509.1 538.01 500.24 550.61 490.16 562.55 479.63 573.87 468.34 583.37 456.64 590.18 444.85 594.75 432.87 595.74 420.91 592.81 408.95 587.41 397.54 579.02 386.69 568.62 375.72 557.7 365.11 546.24 354.81 534.98 344.18 524.94 333.63 515.76 323.11 507.58 312.14 500.98 301.13 495.08 290.2 489.59 279.07 485.1 268.32 480.4 258.34 475.19 248.88 470.31 240.8 464.51 234.6 457.64 229.71 450.78 227.09 442.73 226.93 433.53 228 424.28 231.1 413.9 235.9 402.47 240.58 391.03 245.68 379.14 250.69 367 254.36 354.9 257.63 342.61 260.52 330.35 262.16 318.23 263.91 306.29 266.07 294.83 267.84 283.77 270.61 273.47 274.55 264.31 278.81 255.92 284.46 249.01 291.39 243.9 298.81 239.78 307.38 237.54 316.82 237.24 326.6 237.6 336.99 239.47 347.7 242.6 358.53 245.34 369.5 248.51 380.35 251.77" stroke-dasharray="0 4" transform="rotate(44.44, 400, 400)" opacity="0.92"></path><path d="M377.81 263.14C387.87 264.87 397.58 266.27 406.92 267.31 416.35 267.07 425.6 266.85 434.79 266.87 444.38 266.32 454.26 266.55 464.59 267.76 475.65 269.1 487.4 271.75 499.76 275.72 512.69 280.14 525.88 285.89 538.7 292.79 550.95 300.12 561.69 308.43 569.99 317.46 576.03 326.74 578.57 336.55 577.21 346.64 573.25 356.8 565.95 367.11 556.05 377.39 545.92 387.66 535.83 397.38 526.83 406.53 520.21 415.74 515.49 424.5 512.6 432.89 512.09 441.56 512.51 450.13 513.17 458.75 514.65 467.96 515.2 477.53 514.38 487.51 513.14 498.28 510.07 509.52 505.23 521.02 499.7 532.92 492.57 544.59 484.15 555.42 475.33 565.53 465.56 573.86 455.15 579.69 444.64 583.54 433.68 584.22 422.48 581.44 411.28 576.53 400.35 568.94 389.75 559.48 379.06 549.45 368.54 538.74 358.19 528 347.61 518.13 337.04 508.85 326.49 500.33 315.68 493.11 304.89 486.51 294.32 480.35 283.76 475.12 273.71 469.85 264.56 464.29 256.04 459.14 248.93 453.31 243.64 446.66 239.56 440.09 237.57 432.54 237.82 423.98 239.12 415.41 242.26 405.82 246.94 395.26 251.52 384.7 256.52 373.73 261.51 362.53 265.32 351.4 268.82 340.13 271.97 328.96 273.94 317.97 275.92 307.24 278.16 297.07 279.87 287.31 282.34 278.37 285.74 270.57 289.23 263.48 293.91 257.78 299.72 253.73 305.86 250.5 313.09 248.94 321.2 249.08 329.57 249.68 338.64 251.58 348.17 254.56 357.8 257.12 367.74 260.07 377.81 263.14" stroke-dasharray="4 8" transform="rotate(48.48, 400, 400)" opacity="0.33"></path><path d="M377.85 274.51C387.2 276.2 396.47 277.65 405.62 278.83 414.88 278.86 424.2 278.91 433.64 279.15 443.42 278.78 453.57 279.04 464.15 280.1 475.24 281.14 486.83 283.28 498.74 286.54 510.89 290.09 522.94 294.83 534.31 300.63 544.91 306.75 553.89 313.82 560.52 321.65 565.14 329.67 566.66 338.3 564.81 347.32 560.86 356.4 554.06 365.77 545.01 375.27 535.77 384.78 526.42 393.97 517.85 402.8 511.18 411.69 506 420.36 502.33 428.84 500.73 437.57 500.04 446.35 499.76 455.24 500.43 464.63 500.57 474.34 499.76 484.36 498.87 494.93 496.55 505.79 492.73 516.69 488.48 527.74 482.76 538.36 475.77 548.05 468.46 556.96 460.11 564.16 450.96 569.09 441.69 572.29 431.8 572.69 421.42 570.08 411.04 565.64 400.7 558.82 390.47 550.27 380.19 541.14 369.93 531.23 359.73 521.12 349.4 511.6 339.03 502.4 328.73 493.75 318.32 486.14 308.02 479.02 298.06 472.32 288.27 466.45 279.1 460.64 270.91 454.71 263.41 449.21 257.29 443.24 252.89 436.69 249.6 430.26 248.21 423.06 248.81 415.04 250.31 407.03 253.44 398.15 257.98 388.45 262.42 378.75 267.3 368.72 272.22 358.54 276.15 348.43 279.83 338.27 283.23 328.29 285.53 318.5 287.8 309.05 290.21 300.21 292.01 291.77 294.37 284.17 297.43 277.67 302.4 269.49 317.47 261.14 327.48 261.1 334.62 261.87 342.5 263.75 350.97 266.54 359.5 268.91 368.5 271.64 377.85 274.51" stroke-dasharray="8 7" transform="rotate(52.52, 400, 400)" opacity="0.95"></path><path d="M380.48 285.88C389.17 287.52 398 289 406.91 290.29 415.92 290.58 425.15 290.89 434.61 291.34 444.32 291.21 454.41 291.57 464.84 292.58 475.56 293.45 486.59 295.23 497.67 297.96 508.72 300.84 519.39 304.75 529.18 309.63 538.11 314.71 545.41 320.7 550.51 327.45 553.87 334.34 554.54 341.87 552.35 349.9 548.47 357.97 542.18 366.45 533.97 375.22 525.59 384 517.01 392.66 508.92 401.15 502.34 409.71 496.87 418.21 492.6 426.68 490.09 435.35 488.4 444.16 487.19 453.11 486.97 462.43 486.5 472.02 485.43 481.81 484.52 491.95 482.54 502.2 479.38 512.3 475.98 522.36 471.33 531.88 465.49 540.39 459.43 548.14 452.31 554.28 444.31 558.37 436.21 560.99 427.36 561.16 417.86 558.71 408.35 554.73 398.69 548.64 388.98 540.98 379.26 532.75 369.45 523.69 359.64 514.29 349.78 505.25 339.89 496.34 330.1 487.76 320.33 479.97 310.77 472.56 301.63 465.49 292.79 459.13 284.64 452.89 277.5 446.63 271.06 440.78 265.94 434.65 262.41 428.12 259.85 421.75 259 414.8 259.91 407.24 261.56 399.7 264.66 391.48 269.02 382.6 273.29 373.73 278.01 364.64 282.83 355.52 286.82 346.45 290.64 337.44 294.25 328.68 296.88 320.11 299.46 311.95 302.09 304.44 305.29 294.11 313.87 279.07 319.91 274.97 324.25 273.16 329.47 272.61 335.51 273.3 341.63 274.16 348.51 275.96 356.06 278.55 363.63 280.71 371.79 283.21 380.48 285.88" stroke-dasharray="0 1" transform="rotate(56.56, 400, 400)" opacity="0.97"></path><path d="M385.4 297.25C393.46 298.82 401.8 300.32 410.37 301.7 419 302.21 427.94 302.76 437.14 303.45 446.5 303.56 456.18 304.08 466.07 305.11 476.08 305.94 486.2 307.51 496.14 309.86 505.87 312.25 515.03 315.53 523.19 319.65 530.49 323.89 536.22 328.97 539.96 334.78 542.25 340.68 542.24 347.24 539.82 354.37 536.08 361.51 530.33 369.16 522.93 377.23 515.39 385.29 507.57 393.41 500.04 401.52 493.65 409.69 488.06 417.93 483.38 426.22 480.15 434.68 477.61 443.31 475.55 452.09 474.44 461.11 473.27 470.33 471.75 479.63 470.55 489.11 468.6 498.56 465.75 507.72 462.84 516.71 458.89 525.08 453.91 532.43 448.81 539.06 442.71 544.22 435.72 547.55 428.66 549.64 420.79 549.62 412.2 547.34 403.6 543.79 394.72 538.4 385.7 531.6 376.69 524.27 367.53 516.09 358.34 507.47 349.17 499.05 339.99 490.57 330.97 482.27 322.07 474.53 313.44 467.03 305.32 459.8 297.54 453.14 290.5 446.6 284.46 440.12 279.07 434 274.92 427.73 272.22 421.24 270.34 414.89 269.95 408.16 271.12 401.01 272.87 393.89 275.9 386.28 280.06 378.2 284.14 370.12 288.66 361.97 293.34 353.89 297.32 345.86 301.24 337.99 305 330.45 307.92 323.07 310.79 316.15 313.68 309.89 317.23 301.33 325.68 289.34 331.2 286.32 337.33 284.92 353.33 287.37 363.14 290.57 369.9 292.52 377.33 294.79 385.4 297.25" stroke-dasharray="10 6" transform="rotate(60.599999999999994, 400, 400)" opacity="0.56"></path><path d="M392.02 308.61C399.47 310.12 407.27 311.61 415.33 313.05 423.45 313.75 431.88 314.52 440.53 315.42 449.26 315.79 458.22 316.49 467.25 317.61 476.26 318.48 485.21 319.95 493.8 322.06 502.08 324.13 509.69 326.94 516.26 330.49 524.18 336.25 530.04 351.38 527.24 360.56 523.7 366.88 518.49 373.76 511.88 381.14 505.16 388.51 498.11 396.06 491.17 403.71 485.1 411.39 479.54 419.24 474.64 427.2 470.89 435.27 467.69 443.51 464.91 451.87 462.98 460.37 461.11 468.99 459.06 477.59 457.41 486.23 455.26 494.73 452.47 502.84 449.73 510.71 446.19 517.92 441.8 524.15 437.36 529.71 432.06 533.96 425.93 536.61 419.76 538.24 412.8 538.07 405.11 535.97 397.43 532.84 389.41 528.11 381.21 522.14 373.04 515.68 364.71 508.39 356.35 500.62 348.07 492.91 339.82 485.02 331.77 477.16 323.9 469.68 316.36 462.31 309.36 455.14 302.73 448.39 296.83 441.75 291.89 435.19 287.53 428.94 284.29 422.62 282.34 416.21 281.06 409.93 281.08 403.43 282.44 396.68 284.25 389.96 287.17 382.93 291.1 375.61 294.96 368.29 299.25 361.05 303.73 353.98 307.66 346.95 311.6 340.17 315.45 333.78 320.17 324.63 328.8 309.66 333.22 304.31 337.5 300.26 348.4 297.22 355.32 298.1 360.09 298.96 365.55 300.5 371.68 302.61 377.79 304.34 384.57 306.37 392.02 308.61" stroke-dasharray="3 1" transform="rotate(64.64, 400, 400)" opacity="0.82"></path><path d="M399.58 319.98C406.41 321.4 413.57 322.86 420.99 324.34 428.43 325.2 436.14 326.15 444 327.23 451.87 327.85 459.86 328.74 467.78 329.98 475.6 330.95 483.21 332.41 490.36 334.39 500.2 337.52 514.25 346.88 517.39 353.15 518.08 357.55 517.17 362.56 514.62 368.15 511.34 373.75 506.68 379.91 500.84 386.61 494.91 393.3 488.63 400.23 482.33 407.32 476.65 414.44 471.28 421.76 466.34 429.2 462.27 436.71 458.61 444.37 455.29 452.1 452.68 459.89 450.17 467.71 447.61 475.43 445.45 483.11 442.98 490.55 440.08 497.56 437.31 504.29 433.95 510.36 429.93 515.52 423.57 521.82 407.29 526.66 397.43 524.6 390.64 521.87 383.54 517.77 376.27 512.59 369.03 506.98 361.67 500.59 354.31 493.7 347.05 486.77 339.87 479.58 332.94 472.32 326.21 465.28 319.84 458.26 314.02 451.35 308.55 444.73 303.78 438.19 299.89 431.74 296.49 425.52 294.09 419.29 292.8 413.05 292.04 406.94 292.39 400.71 293.87 394.38 295.69 388.09 298.48 381.63 302.13 375.05 305.74 368.47 309.77 362.08 314.01 355.96 317.83 349.87 321.72 344.11 325.58 338.77 330.55 331.15 339.86 319.05 344.52 314.89 348.97 311.78 359.57 309.73 366.01 310.66 372.9 312.12 389.65 317.05 399.58 319.98" stroke-dasharray="3 5" transform="rotate(68.68, 400, 400)" opacity="0.16"></path><path d="M407.18 331.35C419.54 333.45 433.03 335.99 446.79 338.85 460.45 340.15 473.88 342.66 485.6 346.65 495.98 350.13 503.1 355.76 505.45 363.52 505.12 371.22 499.74 381.16 489.8 393.19 479.6 405.21 468.6 418.3 458.42 431.79 450.76 445.4 443.95 459.44 437.59 472.93 432.67 486.06 426.68 497.78 419.05 506.54 411.6 513.4 401.91 515.98 390.05 513.24 378.18 507.93 365.45 498.49 352.84 486.65 340.61 474.48 329.1 461.32 319.51 448.26 311.11 435.92 305.5 423.63 303.6 411.68 303.27 400.09 306.52 388.29 313.17 376.57 319.66 364.84 327.4 354.26 335.37 345.38 341.64 336.72 348.19 330.15 355.1 326.19 360.84 322.63 367.85 321.66 376.38 323.27 384.57 324.46 394.82 327.28 407.18 331.35" stroke-dasharray="1 10" transform="rotate(72.72, 400, 400)" opacity="0.37"></path><path d="M413.95 342.72C424.93 344.71 436.61 347.28 448.21 350.25 459.61 351.97 470.4 354.71 479.37 358.65 487.2 362.06 492.13 367.21 493.13 374.13 492.23 380.94 487.34 389.7 478.76 400.34 470 410.97 460.25 422.57 450.83 434.46 443.13 446.38 435.91 458.49 429.07 469.87 423.41 480.81 417.11 490.33 409.8 497.2 402.72 502.56 394.05 504.38 383.83 501.87 373.61 497.42 362.9 489.5 352.55 479.45 342.52 468.98 333.35 457.38 326.01 445.64 319.61 434.29 315.63 422.88 314.76 411.86 314.99 401.08 318.17 390.34 324.21 380.03 330.12 369.72 337.27 360.75 344.8 353.48 351.1 346.33 357.77 341.08 364.74 338.08 370.77 335.23 377.74 334.52 385.83 335.92 393.59 336.85 402.96 339.19 413.95 342.72" stroke-dasharray="11 1" transform="rotate(76.76, 400, 400)" opacity="0.13"></path><path d="M419.08 354.09C428.61 355.93 438.37 358.44 447.72 361.42 456.86 363.43 465.14 366.33 471.65 370.19 477.28 373.59 480.46 378.36 480.49 384.53 479.28 390.58 474.96 398.24 467.72 407.46 460.35 416.67 451.94 426.63 443.5 436.74 436.17 446.8 428.98 456.85 422.05 466.07 416.01 474.87 409.58 482.32 402.63 487.51 395.9 491.55 388.17 492.75 379.5 490.5 370.83 486.85 362.09 480.36 353.91 472.07 345.97 463.33 338.98 453.46 333.65 443.28 328.98 433.26 326.36 423.09 326.26 413.26 326.88 403.58 329.89 394.07 335.25 385.16 340.52 376.25 346.95 368.73 353.87 362.8 359.96 356.92 366.49 352.72 373.29 350.38 379.41 348.05 386.22 347.45 393.79 348.56 401.1 349.21 409.55 351.09 419.08 354.09" stroke-dasharray="5 6" transform="rotate(80.80000000000001, 400, 400)" opacity="0.39"></path><path d="M421.98 365.45C429.97 367.1 437.8 369.46 444.98 372.31 455 375.95 467.23 386.65 467.6 394.29 466.28 399.63 462.61 406.21 456.68 413.96 450.67 421.71 443.65 429.94 436.38 438.15 429.76 446.3 423.03 454.25 416.45 461.38 410.44 468.16 404.21 473.73 397.78 477.45 391.54 480.38 384.76 481.08 377.57 479.13 370.38 476.22 363.47 471.08 357.27 464.46 351.22 457.45 346.13 449.39 342.48 440.95 339.25 432.52 337.69 423.86 338.11 415.47 338.95 407.14 341.67 399.02 346.29 391.52 350.84 384.02 356.45 377.82 362.58 373.02 368.2 368.22 374.31 364.82 380.67 362.94 386.57 360.97 393 360.38 399.87 361.16 406.57 361.55 413.99 362.99 421.98 365.45" stroke-dasharray="11 2" transform="rotate(84.84, 400, 400)" opacity="0.12"></path><path d="M422.31 376.82C435.1 379.08 445.94 384.22 451.94 391.27 456.54 397.3 454.73 406.79 445.64 419.3 436.33 431.8 424.04 445.08 412.08 455.69 401.43 465.28 389.78 470.35 378.26 467.76 366.74 462.77 357.4 451.58 352.49 438.41 348.46 425.04 349.79 410.71 357.33 398.59 364.68 386.46 375.41 378.6 386.83 375.53 397.25 372.04 409.5 372.44 422.31 376.82" stroke-dasharray="9 8" transform="rotate(88.88, 400, 400)" opacity="0.33"></path><path d="M420.02 388.19C429.57 390.13 436.85 394.59 440.3 400.53 443.07 405.88 441.35 413.6 434.6 423.03 427.74 432.45 418.27 441.85 408.71 448.93 399.76 455.4 390.21 458.54 381.5 456.4 372.79 452.91 366.44 444.98 363.59 435.45 361.1 425.67 362.51 414.96 368.37 405.77 374.13 396.58 382.66 390.53 391.83 387.96 400.57 385.05 410.47 385.03 420.02 388.19" stroke-dasharray="1 1" transform="rotate(92.92, 400, 400)" opacity="0.84"></path><path d="M415.4 399.56C427.99 401.9 432.22 412.23 423.57 424.84 414.7 437.45 398.67 447.53 386.9 445.03 375.12 440.19 371.42 424.85 379.41 412.47 387.2 400.09 402.79 395.02 415.4 399.56" stroke-dasharray="9 0" transform="rotate(96.96, 400, 400)" opacity="0.51"></path></g></svg>