<svg xmlns="http://www.w3.org/2000/svg" version="1.1" xmlns:xlink="http://www.w3.org/1999/xlink" xmlns:svgjs="http://svgjs.dev/svgjs" viewBox="0 0 800 800"><defs><linearGradient x1="50%" y1="0%" x2="50%" y2="100%" id="vvvortex-grad"><stop stop-color="#fe8900" stop-opacity="1" offset="0%"></stop><stop stop-color="#fecc06" stop-opacity="1" offset="100%"></stop></linearGradient></defs><g stroke="url(#vvvortex-grad)" fill="none" stroke-linecap="round"><circle r="379.5" cx="400" cy="400" stroke-width="9" stroke-dasharray="28 26" stroke-dashoffset="25" transform="rotate(110, 400, 400)" opacity="0.12"></circle><circle r="363" cx="400" cy="400" stroke-width="9" stroke-dasharray="18 32" stroke-dashoffset="25" transform="rotate(246, 400, 400)" opacity="0.76"></circle><circle r="346.5" cx="400" cy="400" stroke-width="8" stroke-dasharray="52 39" stroke-dashoffset="25" transform="rotate(303, 400, 400)" opacity="0.14"></circle><circle r="330" cx="400" cy="400" stroke-width="8" stroke-dasharray="28 10" stroke-dashoffset="25" transform="rotate(182, 400, 400)" opacity="0.39"></circle><circle r="313.5" cx="400" cy="400" stroke-width="8" stroke-dasharray="31 21" stroke-dashoffset="25" transform="rotate(291, 400, 400)" opacity="0.34"></circle><circle r="297" cx="400" cy="400" stroke-width="8" stroke-dasharray="30 21" stroke-dashoffset="25" transform="rotate(217, 400, 400)" opacity="0.74"></circle><circle r="280.5" cx="400" cy="400" stroke-width="7" stroke-dasharray="33 45" stroke-dashoffset="25" transform="rotate(315, 400, 400)" opacity="0.71"></circle><circle r="264" cx="400" cy="400" stroke-width="7" stroke-dasharray="52 31" stroke-dashoffset="25" transform="rotate(220, 400, 400)" opacity="0.18"></circle><circle r="247.5" cx="400" cy="400" stroke-width="7" stroke-dasharray="34 40" stroke-dashoffset="25" transform="rotate(81, 400, 400)" opacity="0.79"></circle><circle r="231" cx="400" cy="400" stroke-width="7" stroke-dasharray="47 25" stroke-dashoffset="25" transform="rotate(181, 400, 400)" opacity="0.86"></circle><circle r="214.5" cx="400" cy="400" stroke-width="6" stroke-dasharray="41 28" stroke-dashoffset="25" transform="rotate(302, 400, 400)" opacity="0.44"></circle><circle r="198" cx="400" cy="400" stroke-width="6" stroke-dasharray="42 12" stroke-dashoffset="25" transform="rotate(336, 400, 400)" opacity="0.15"></circle><circle r="181.5" cx="400" cy="400" stroke-width="6" stroke-dasharray="18 27" stroke-dashoffset="25" transform="rotate(28, 400, 400)" opacity="0.13"></circle><circle r="165" cx="400" cy="400" stroke-width="5" stroke-dasharray="19 43" stroke-dashoffset="25" transform="rotate(211, 400, 400)" opacity="0.80"></circle><circle r="148.5" cx="400" cy="400" stroke-width="5" stroke-dasharray="41 32" stroke-dashoffset="25" transform="rotate(109, 400, 400)" opacity="0.77"></circle><circle r="132" cx="400" cy="400" stroke-width="5" stroke-dasharray="41 44" stroke-dashoffset="25" transform="rotate(335, 400, 400)" opacity="0.90"></circle><circle r="115.5" cx="400" cy="400" stroke-width="5" stroke-dasharray="30 40" stroke-dashoffset="25" transform="rotate(232, 400, 400)" opacity="0.17"></circle><circle r="99" cx="400" cy="400" stroke-width="4" stroke-dasharray="19 22" stroke-dashoffset="25" transform="rotate(281, 400, 400)" opacity="0.61"></circle><circle r="82.5" cx="400" cy="400" stroke-width="4" stroke-dasharray="11 25" stroke-dashoffset="25" transform="rotate(230, 400, 400)" opacity="0.47"></circle><circle r="66" cx="400" cy="400" stroke-width="4" stroke-dasharray="40 18" stroke-dashoffset="25" transform="rotate(37, 400, 400)" opacity="0.58"></circle><circle r="49.5" cx="400" cy="400" stroke-width="4" stroke-dasharray="40 11" stroke-dashoffset="25" transform="rotate(162, 400, 400)" opacity="0.21"></circle><circle r="33" cx="400" cy="400" stroke-width="3" stroke-dasharray="52 44" stroke-dashoffset="25" transform="rotate(137, 400, 400)" opacity="0.08"></circle><circle r="16.5" cx="400" cy="400" stroke-width="3" stroke-dasharray="21 40" stroke-dashoffset="25" transform="rotate(254, 400, 400)" opacity="0.64"></circle></g></svg>